<svg width="32" height="32" fill="none" xmlns="http://www.w3.org/2000/svg"><path d="M25.438 22.313a3.598 3.598 0 01-3.594-3.594 3.598 3.598 0 013.593-3.594 3.598 3.598 0 013.594 3.594 3.598 3.598 0 01-3.593 3.593zm-18.875 0a3.598 3.598 0 01-3.594-3.594 3.598 3.598 0 013.594-3.594 3.598 3.598 0 013.593 3.594 3.598 3.598 0 01-3.594 3.593zM22.25 2.5A3.09 3.09 0 0119.47.782l-.13-.264A.938.938 0 0018.5 0h-5c-.355 0-.68.2-.839.518l-.131.264A3.09 3.09 0 019.75 2.5a.938.938 0 00-.938.938v5.35a9.64 9.64 0 001.92 5.794 9.638 9.638 0 004.999 3.503.936.936 0 00.538 0 9.638 9.638 0 005-3.503 9.639 9.639 0 001.919-5.795v-5.35a.938.938 0 00-.938-.937zm-2.935 5.458l-3.536 3.535a.934.934 0 01-1.326 0l-1.767-1.768A.937.937 0 1114.01 8.4l1.105 1.104 2.873-2.872a.937.937 0 111.326 1.326zm9.956 14.657a5.45 5.45 0 01-3.834 1.573A5.45 5.45 0 0121.6 22.61a6.57 6.57 0 00-1.384 1.345l.516.451a7.19 7.19 0 012.456 5.407V32h7.875c.518 0 .938-.42.938-.938v-3.125a6.558 6.558 0 00-2.729-5.322zm-26.542 0A6.558 6.558 0 000 27.938v3.125c0 .517.42.937.938.937h7.875v-2.188a7.19 7.19 0 012.456-5.406l.515-.45a6.57 6.57 0 00-1.383-1.346 5.45 5.45 0 01-3.838 1.578 5.45 5.45 0 01-3.834-1.573zm16.766 3.202a4.829 4.829 0 01-6.99 0 5.3 5.3 0 00-1.818 3.995V32h10.626v-2.188a5.3 5.3 0 00-1.818-3.995zM16 25.438a2.972 2.972 0 01-2.969-2.97A2.972 2.972 0 0116 19.5a2.972 2.972 0 012.969 2.969A2.972 2.972 0 0116 25.437z" fill="#F17D46"/></svg>