<svg width="32" height="32" fill="none" xmlns="http://www.w3.org/2000/svg"><path d="M28.887 12.888C28.887 5.78 23.105 0 15.999 0 8.892 0 3.11 5.781 3.11 12.888c0 7.106 5.781 12.887 12.888 12.887 7.106 0 12.888-5.781 12.888-12.887zm-15.186 5.497l-4.4-4.4 1.334-1.333 3.066 3.066 7.662-7.661 1.334 1.333-8.996 8.995zm-9.612 3.232l-3.902 5.69 5.769-1.075L7.03 32l3.654-5.328a14.848 14.848 0 01-6.596-5.055zm23.82 0a14.847 14.847 0 01-6.596 5.055L24.967 32l1.075-5.768 5.768 1.075-3.901-5.69z" fill="#F17D46"/></svg>