<svg width="64" height="64" fill="none" xmlns="http://www.w3.org/2000/svg"><g clip-path="url(#clip0_1:231)"><path d="M32 0C18.768 0 8 10.843 8 24.173c0 18.942 21.744 38.499 22.67 39.32a2.008 2.008 0 002.661.003C34.256 62.672 56 43.115 56 24.173 56 10.843 45.232 0 32 0zm0 37.333c-7.352 0-13.333-5.981-13.333-13.333S24.648 10.667 32 10.667 45.333 16.648 45.333 24 39.352 37.333 32 37.333z" fill="#EF7C46"/><circle cx="32" cy="24" r="14" fill="#171717"/><g clip-path="url(#clip1_1:231)" fill="#fff"><path d="M37.172 22.331a.113.113 0 000-.154l-1.381-1.381a.884.884 0 00-1.174-1.174l-1.182-1.181a.377.377 0 00-.549 0 .107.107 0 00-.032.075.106.106 0 00.032.075l1.358 1.358a.885.885 0 00-.03.9c-.294.29-.654.506-1.05.628-.388.14-.738.368-1.023.666a2.687 2.687 0 00-.666 1.023 2.581 2.581 0 01-.636 1.05l-2.66 2.668a.613.613 0 00-.414-.019l-1.58-1.569a.105.105 0 00-.154 0l-.2.196a.113.113 0 000 .154l1.535 1.535a.643.643 0 00.87.866l1.535 1.535a.102.102 0 00.15 0l.2-.2a.105.105 0 000-.15l-1.57-1.57a.67.67 0 00-.033-.428l2.66-2.66a2.58 2.58 0 011.05-.636c.388-.14.738-.368 1.023-.666.268-.261.482-.574.628-.918.147-.388.353-.75.61-1.076l.064-.08a.877.877 0 00.9-.03l1.158 1.163a.376.376 0 00.56 0zm-11.806.515l-1.984 1.985a.455.455 0 000 .644l.83.83a.455.455 0 00.644 0l1.984-1.985a.455.455 0 000-.643l-.83-.83a.455.455 0 00-.644 0zm7.914-6.976l-2.593 1.074a.455.455 0 00-.246.595l.45 1.085a.455.455 0 00.594.246l2.593-1.075a.455.455 0 00.246-.595l-.45-1.084a.455.455 0 00-.594-.247z"/><path d="M39.088 21.678l-2.593 1.075a.455.455 0 00-.246.596l.45 1.084a.455.455 0 00.594.246l2.593-1.075a.455.455 0 00.246-.595l-.45-1.084a.455.455 0 00-.594-.247zm-7.993 6.892l-1.985 1.984a.455.455 0 000 .644l.83.83a.455.455 0 00.644 0l1.985-1.985a.455.455 0 000-.643l-.83-.83a.455.455 0 00-.644 0z"/></g></g><defs><clipPath id="clip0_1:231"><path fill="#fff" d="M0 0h64v64H0z"/></clipPath><clipPath id="clip1_1:231"><path fill="#fff" transform="translate(23.25 15.833)" d="M0 0h16.917v16.333H0z"/></clipPath></defs></svg>