<svg width="139" height="49" fill="none" xmlns="http://www.w3.org/2000/svg"><path fill-rule="evenodd" clip-rule="evenodd" d="M58.265.529c-7.293 2.203-12.713 6.655-20.981 15.607C29.016 7.184 23.594 2.732 16.302.529v3.104c.72.242 1.433.514 2.137.82 5.75 2.5 10.783 7.401 15.133 12.035-9.9 1.077-19.76 3.291-27.287 7.531-3.518 1.982-6.13 6.074-4.78 10.614.642 2.157-1.94 1.298-1.44 4.78.437 3.047 2.825 3.063 6.262 3.063h13.98a11.036 11.036 0 009.85 6.053c4.303 0 8.03-2.462 9.851-6.054h18.257v-2.958H41.01c.122-.656.186-1.333.186-2.026 0-6.095-4.941-11.037-11.038-11.037-6.095 0-11.037 4.942-11.037 11.037 0 .693.065 1.37.187 2.026H6.327c-.555 0-2.66.028-3.269-.215a3.237 3.237 0 01-.102-.723c.33-.353.625-.572.943-1.06.746-1.147.825-2.442.441-3.73a5.486 5.486 0 01-.212-2.06l1.541-.28c1.089-.198 1.244-.156 1.966.487 1.08.962 1.582 1.15 3.508.82 4.773-.82 6.783-2.477 9.109-6.506L4.936 29.282c.65-1.1 1.64-2.031 2.8-2.685 8.577-4.831 20.034-6.716 29.788-7.513l1.15-.094h19.591v-2.854H41.327C45.6 11.607 50.525 6.89 56.128 4.453a26.291 26.291 0 012.137-.82V.53zm4.68 41.946h29.203v-2.958h-2.194l-.045-8.433c0-4.375-2.955-8.122-7.05-9.506 4.095-1.384 7.05-5.13 7.05-9.505v-8.44h2.239V.53H60.705v3.104h2.24V3.6v8.474c0 4.373 2.955 8.121 7.05 9.505-4.095 1.384-7.05 5.134-7.05 9.506v8.433h-2.24v2.958h2.24zm13.482-29.252l1.755-1.013.03-.018L80 11.162V4.344c2.833.022 4.714 3.36 4.714 6.694v.5c0 2.46-1.63 4.609-3.932 5.408l-1.2.416-.004.002v8.275h.004l1.2.417c2.301.799 3.932 2.947 3.932 5.407v.501c0 3.335-1.88 6.673-4.714 6.694v-6.816l-1.787-1.031-.03-.017-1.755-1.014-1.755 1.013v.001l-.03.017-1.787 1.031v6.816c-2.833-.021-4.714-3.36-4.714-6.694v-.501c0-2.46 1.63-4.608 3.932-5.407l1.2-.416.004-.001v-8.275l-.004-.002-1.2-.416c-2.302-.8-3.932-2.947-3.932-5.407v-.501c0-3.335 1.88-6.672 4.714-6.694v6.816l1.787 1.031.03.017 1.755 1.014zm-51.65 29.252l-.036-.038-.036-.04-.035-.04-.035-.04-.064-.073-.006-.007-.034-.04-.068-.083-.033-.04-.007-.01-.059-.074-.032-.042-.032-.042-.062-.084-.002-.002-.032-.044-.058-.082-.033-.047-.03-.044-.022-.033-.008-.012-.03-.044-.028-.045-.057-.09-.029-.045-.008-.013-.02-.032-.027-.047-.027-.045-.027-.046-.02-.035-.007-.012-.052-.093-.005-.009-.02-.038-.06-.112-.015-.03-.024-.048-.036-.073-.028-.057-.006-.015-.046-.097-.002-.004-.018-.04-.047-.109-.029-.066-.043-.106-.019-.049-.043-.114-.02-.056-.046-.127-.014-.045-.04-.122-.015-.049a7.335 7.335 0 1114.027 0l-.016.05-.054.166-.045.127-.02.056-.044.114-.02.049-.043.106-.028.066-.047.108-.019.041-.001.004-.023.049-.023.048-.006.015-.028.057-.036.073-.024.048-.016.03-.059.112-.02.038-.005.009-.026.047-.026.046-.007.012-.02.035-.027.046-.055.092-.02.032-.007.013-.029.045-.028.045-.029.045-.029.045-.03.044-.008.012-.021.032-.03.045-.03.044-.003.003-.059.082v.001l-.032.043v.002l-.063.084-.032.042-.032.042-.059.074-.007.01-.033.04-.068.083-.035.04-.005.007-.064.074-.035.04-.035.04-.036.039-.036.038a7.313 7.313 0 01-5.381 2.351 7.313 7.313 0 01-5.38-2.35z" fill="#F17D46"/><path d="M106.224 12.192c-1.621 0-2.976-.512-4.064-1.536-1.077-1.035-1.616-2.363-1.616-3.984s.539-2.944 1.616-3.968c1.088-1.035 2.443-1.552 4.064-1.552 1.995 0 3.483.87 4.464 2.608l-1.952.96a2.862 2.862 0 00-1.04-1.104 2.6 2.6 0 00-1.472-.448c-.971 0-1.771.33-2.4.992-.629.661-.944 1.499-.944 2.512s.315 1.85.944 2.512c.629.661 1.429.992 2.4.992.533 0 1.024-.144 1.472-.432a2.83 2.83 0 001.04-1.12l1.952.944c-1.013 1.75-2.501 2.624-4.464 2.624zM119.256 12h-2.032V6.048h-3.2V12h-2.032V4.272h7.264V12zm5.65.192c-1.195 0-2.182-.373-2.96-1.12-.779-.747-1.168-1.728-1.168-2.944 0-1.141.373-2.101 1.12-2.88.757-.779 1.717-1.168 2.88-1.168 1.152 0 2.085.395 2.8 1.184.714.779 1.072 1.803 1.072 3.072v.448h-5.744c.064.512.293.939.688 1.28.394.341.906.512 1.536.512.341 0 .709-.07 1.104-.208.405-.139.725-.325.96-.56l.896 1.312c-.779.715-1.84 1.072-3.184 1.072zm1.776-4.784a1.936 1.936 0 00-.528-1.184c-.31-.352-.768-.528-1.376-.528-.576 0-1.024.176-1.344.528-.32.341-.507.736-.56 1.184h3.808zm9.515 6.56V12h-6.08V4.272h2.032v5.952h3.2V4.272h2.032v5.952h.848v3.744h-2.032zM103.328 27h-2.272V16.328h7.552v2h-5.28V27zm6.096 3.024l.304-1.824c.192.085.405.128.64.128.544 0 .901-.187 1.072-.56l.288-.656-3.137-7.84h2.177l2.016 5.376 2.016-5.376h2.192l-3.632 8.992c-.267.683-.64 1.157-1.12 1.424-.48.277-1.083.427-1.808.448a4.14 4.14 0 01-1.008-.112zm12.891-2.832c-.971 0-1.766-.395-2.384-1.184v3.936h-2.032V19.272h2.032v.976c.608-.779 1.402-1.168 2.384-1.168 1.013 0 1.834.363 2.464 1.088.64.715.96 1.701.96 2.96s-.32 2.25-.96 2.976c-.63.725-1.451 1.088-2.464 1.088zm-.64-1.808c.586 0 1.056-.208 1.408-.624.362-.416.544-.96.544-1.632 0-.661-.182-1.2-.544-1.616-.352-.416-.822-.624-1.408-.624-.331 0-.662.085-.992.256-.331.17-.582.379-.752.624v2.736c.17.245.421.453.752.624.341.17.672.256.992.256zM111.008 42h-2.592l-.656-1.808h-4.576L102.512 42H99.92l4.128-10.672h2.848L111.008 42zm-3.872-3.808l-1.664-4.592-1.664 4.592h3.328zm9.85 3.808h-5.04v-7.728h4.896c.746 0 1.328.192 1.744.576.416.384.624.853.624 1.408 0 .448-.123.827-.368 1.136-.246.31-.56.517-.944.624.426.096.778.32 1.056.672.277.352.416.757.416 1.216 0 .608-.214 1.11-.64 1.504-.416.395-.998.592-1.744.592zm-.496-1.664c.245 0 .437-.064.576-.192a.66.66 0 00.224-.528.672.672 0 00-.224-.512c-.139-.139-.331-.208-.576-.208h-2.512v1.44h2.512zm-.064-3.104c.213 0 .384-.059.512-.176a.611.611 0 00.208-.464.6.6 0 00-.192-.464c-.128-.128-.304-.192-.528-.192h-2.448v1.296h2.448zM124.793 42h-2.048v-5.952h-2.16v-1.776h6.368v1.776h-2.16V42zm9.994-.976c-.747.779-1.739 1.168-2.976 1.168-1.238 0-2.23-.39-2.976-1.168-.736-.79-1.104-1.755-1.104-2.896s.368-2.101 1.104-2.88c.746-.779 1.738-1.168 2.976-1.168 1.237 0 2.229.39 2.976 1.168.746.779 1.12 1.739 1.12 2.88 0 1.141-.374 2.107-1.12 2.896zm-4.416-1.28c.352.427.832.64 1.44.64s1.088-.213 1.44-.64c.362-.437.544-.976.544-1.616 0-.63-.182-1.157-.544-1.584-.352-.437-.832-.656-1.44-.656s-1.088.219-1.44.656c-.352.427-.528.955-.528 1.584 0 .64.176 1.179.528 1.616z" fill="#000"/></svg>