<svg width="32" height="32" fill="none" xmlns="http://www.w3.org/2000/svg"><circle cx="16" cy="16" r="16" fill="#2F75EC"/><path fill-rule="evenodd" clip-rule="evenodd" d="M11.502 11.49h8.98a2.136 2.136 0 011.406.484l-.512.348-5.4 3.649-1.406-.96a.278.278 0 00-.101-.064l-3.863-2.628-.51-.345a2 2 0 011.406-.484zm-1.76.938l.476.325 3.713 2.536-3.68 4.014-.399.434a2.42 2.42 0 01-.416-1.396l.003-4.69c-.004-.429.1-.85.304-1.223zm11.6 7.274l-3.753-4.085-1.434.974-.047.023h-.023a.267.267 0 01-.07 0 .267.267 0 01-.07 0h-.023l-.068-.023-1.422-.968-3.773 4.091-.405.44c.372.25.807.375 1.248.357H20.5c.44.003.87-.128 1.24-.378l-.397-.43zm1.22-6.043v4.682c.02.5-.123.99-.404 1.393l-.402-.44-3.678-4.017 3.711-2.524.478-.322a2.4 2.4 0 01.296 1.228z" fill="#fff"/></svg>