<svg width="28" height="32" fill="none" xmlns="http://www.w3.org/2000/svg"><path d="M16.177 21.257a1.499 1.499 0 00-.427-.31c-.34-.178-.713-.286-1.082-.383v2.863c.6-.068 1.288-.286 1.603-.845.15-.268.18-.596.119-.894a.899.899 0 00-.213-.431zm.09 1.33l.004-.005-.004.005zm-4.412-5.907a1.079 1.079 0 00-.185.504c-.018.182-.008.385.061.556.066.164.204.284.347.382.16.108.335.193.514.265.15.06.32.119.502.174v-2.59c-.46.098-.963.308-1.239.71z" fill="#F17D46"/><path d="M16.283 22.56l-.012.021.012-.02zm.015-.026c0-.002 0-.002 0 0z" fill="#F17D46"/><path d="M15.676 6.963C18.111 4.918 19.737.31 18.736.109c-1.33-.268-4.218.907-5.614 1.114-1.98.239-4.137-2.147-5.347-.817-.984 1.081.705 5.014 3.35 6.727-7.888 3.877-18.975 23.338.366 24.75 26.762 1.954 13.361-21.143 4.185-24.92zm2.299 15.347a2.814 2.814 0 01-1.086 1.911c-.634.492-1.43.72-2.221.785v.838a.791.791 0 01-.266.59.794.794 0 01-.85.125.794.794 0 01-.458-.715v-.916a5.177 5.177 0 01-.404-.093c-.739-.203-1.424-.599-1.925-1.185a3.47 3.47 0 01-.692-1.265c-.026-.087-.053-.176-.062-.267a.788.788 0 011.53-.326c.03.09.05.183.084.273.034.09.074.176.121.258.094.163.211.313.346.443.278.268.632.442 1.002.546v-3.115c-.723-.187-1.468-.428-2.064-.892a2.4 2.4 0 01-.697-.837c-.17-.35-.24-.74-.243-1.127a2.684 2.684 0 01.235-1.141c.154-.335.375-.637.646-.886.58-.534 1.35-.832 2.123-.94v-.871c0-.224.098-.441.266-.59a.794.794 0 01.85-.125c.276.127.458.41.458.715v.865c.103.013.206.029.308.047.758.138 1.5.45 2.055.998a3.002 3.002 0 01.74 1.192c.03.091.06.185.074.28a.789.789 0 01-.813.903.794.794 0 01-.7-.504c-.033-.086-.05-.177-.083-.263a1.381 1.381 0 00-.129-.248 1.503 1.503 0 00-.372-.39c-.315-.233-.698-.354-1.08-.422v2.98c.454.11.909.228 1.344.4.658.259 1.282.657 1.641 1.284a.923.923 0 01.002.003c.11.193.057.101.002.005.286.503.38 1.105.318 1.677z" fill="#F17D46"/><path d="M16.26 22.602l-.013.021.012-.02z" fill="#F17D46"/></svg>