<svg width="32" height="32" fill="none" xmlns="http://www.w3.org/2000/svg"><g clip-path="url(#clip0_1:128)" fill="#F17D46"><path d="M16 6.5c-5.265 0-9.543 4.285-9.543 9.544 0 5.258 4.285 9.543 9.543 9.543 5.258 0 9.543-4.285 9.543-9.543 0-5.259-4.277-9.544-9.543-9.544zm4.786 7.256l-5.76 5.432a.56.56 0 01-.399.16.566.566 0 01-.414-.174L11.2 16.08a.58.58 0 01.828-.814l2.615 2.687 5.345-5.04a.58.58 0 01.8.843z"/><path d="M29.705 19.523L32 16.043l-2.295-3.478a.588.588 0 01-.095-.349l.233-4.169-3.711-1.88a.573.573 0 01-.255-.255l-1.873-3.711-4.17.232a.585.585 0 01-.348-.094L16 .044l-3.479 2.295a.585.585 0 01-.348.094l-4.17-.232-1.88 3.711a.574.574 0 01-.255.254L2.157 8.04l.232 4.169a.588.588 0 01-.094.349L0 16.044l2.295 3.479c.067.103.1.225.094.348l-.232 4.169 3.711 1.874c.11.055.2.144.255.254l1.873 3.712 4.17-.233h.028a.614.614 0 01.32.094l3.479 2.295 3.479-2.295a.59.59 0 01.348-.094l4.17.233 1.873-3.712a.573.573 0 01.254-.254l3.711-1.874-.232-4.169a.73.73 0 01.109-.348zM16 26.749c-5.905 0-10.706-4.8-10.706-10.705S10.095 5.338 16 5.338c5.905 0 10.705 4.801 10.705 10.706 0 5.904-4.8 10.705-10.705 10.705z"/></g><defs><clipPath id="clip0_1:128"><path fill="#fff" d="M0 0h32v32H0z"/></clipPath></defs></svg>