<svg width="32" height="32" fill="none" xmlns="http://www.w3.org/2000/svg"><path d="M29.897 4.479a1.046 1.046 0 00-.755-.864L16.28.038a1.046 1.046 0 00-.56 0L2.858 3.615c-.4.112-.698.45-.755.864-.075.536-1.777 13.21 2.588 19.515 4.36 6.297 10.792 7.911 11.064 7.977a1.04 1.04 0 00.49 0c.272-.066 6.704-1.68 11.064-7.977 4.365-6.305 2.663-18.979 2.588-19.515zm-5.603 7.399L15.52 20.65a1.043 1.043 0 01-1.479 0l-5.424-5.425a1.046 1.046 0 010-1.479l1.077-1.076a1.046 1.046 0 011.48 0l3.607 3.607 6.956-6.956a1.045 1.045 0 011.479 0l1.077 1.077c.408.408.408 1.07 0 1.479z" fill="#F17D46"/></svg>