<svg width="32" height="32" fill="none" xmlns="http://www.w3.org/2000/svg"><path d="M16 18.047c2.208 0 7.399-2.657 7.399-9.023C23.399 4.04 22.726 0 16 0S8.601 4.04 8.601 9.024c0 6.366 5.191 9.023 7.399 9.023zM9.707 7.517c.52-1.004 1.644-2.166 4.062-2.114 0 0 1.44 3.495 8.515 1.925.029.559.038 1.128.038 1.696 0 3.112-1.374 5.04-2.527 6.11C18.342 16.48 16.73 16.97 16 16.97s-2.342-.489-3.795-1.837c-1.153-1.07-2.527-2.997-2.527-6.11 0-.503.008-1.008.03-1.505z" fill="#F17D46"/><path d="M29.736 27.302c-.378-2.35-1.156-5.375-2.715-6.45-1.065-.734-4.781-2.72-6.368-3.567l-.027-.015a.518.518 0 00-.565.05 6.741 6.741 0 01-2.707 1.307.519.519 0 00-.372.322L16 21.54l-.982-2.59a.519.519 0 00-.373-.322 6.741 6.741 0 01-2.706-1.307.518.518 0 00-.565-.05c-1.567.838-5.329 2.864-6.39 3.58-1.796 1.209-2.58 5.586-2.72 6.452a.52.52 0 00.023.255C2.352 27.74 4 32 16 32s13.648-4.261 13.713-4.443a.517.517 0 00.023-.255zm-5.53-1.434l-2.349.733-2.349-.733v-1.263h4.698v1.263z" fill="#F17D46"/></svg>