<svg width="32" height="32" fill="none" xmlns="http://www.w3.org/2000/svg"><circle cx="16" cy="16" r="16" fill="#45AEE4"/><path fill-rule="evenodd" clip-rule="evenodd" d="M12.018 17.08l-3.263-1.285c-.331-.131-.334-.624-.004-.759l13.392-5.449c.284-.115.577.147.515.461l-2.403 12.193c-.056.288-.377.418-.602.245l-3.281-2.512a.52.52 0 00-.662.02l-1.819 1.563c-.21.182-.529.08-.61-.193l-1.263-4.285zm7.437-4.827l-6.377 4.143a.695.695 0 00-.28.762l.689 2.555a.163.163 0 00.322-.025l.179-1.401a1.17 1.17 0 01.338-.688l5.263-5.16c.099-.097-.02-.26-.134-.186z" fill="#fff"/><path d="M13.078 16.396l6.377-4.143c.115-.074.233.09.134.185l-5.263 5.16a1.173 1.173 0 00-.338.689l-.18 1.401a.163.163 0 01-.321.025l-.69-2.555a.695.695 0 01.28-.762z" fill="#EAEAEA"/></svg>